<mxfile host="app.diagrams.net" modified="2022-09-09T12:32:18.796Z" agent="5.0 (Macintosh; Intel Mac OS X 10_15_7) AppleWebKit/605.1.15 (KHTML, like Gecko) Version/15.6.1 Safari/605.1.15" etag="7mzEvLDoCNQppp25Mb2t" version="20.3.0" type="github">
  <diagram id="C5RBs43oDa-KdzZeNtuy" name="Page-1">
    <mxGraphModel dx="873" dy="648" grid="1" gridSize="10" guides="1" tooltips="1" connect="1" arrows="1" fold="1" page="1" pageScale="1" pageWidth="827" pageHeight="1169" math="0" shadow="0">
      <root>
        <mxCell id="WIyWlLk6GJQsqaUBKTNV-0" />
        <mxCell id="WIyWlLk6GJQsqaUBKTNV-1" parent="WIyWlLk6GJQsqaUBKTNV-0" />
        <mxCell id="dM2k9peXBmlgQaBkXuvi-0" value="" style="rounded=0;whiteSpace=wrap;html=1;" vertex="1" parent="WIyWlLk6GJQsqaUBKTNV-1">
          <mxGeometry x="548" y="365" width="120" height="60" as="geometry" />
        </mxCell>
        <mxCell id="NII9MXl5tiNiIM6wbz7J-2" style="edgeStyle=orthogonalEdgeStyle;rounded=0;orthogonalLoop=1;jettySize=auto;html=1;exitX=0.5;exitY=1;exitDx=0;exitDy=0;" edge="1" parent="WIyWlLk6GJQsqaUBKTNV-1" source="NII9MXl5tiNiIM6wbz7J-0" target="NII9MXl5tiNiIM6wbz7J-1">
          <mxGeometry relative="1" as="geometry" />
        </mxCell>
        <mxCell id="NII9MXl5tiNiIM6wbz7J-0" value="main" style="rounded=0;whiteSpace=wrap;html=1;" vertex="1" parent="WIyWlLk6GJQsqaUBKTNV-1">
          <mxGeometry x="100" y="200" width="120" height="50" as="geometry" />
        </mxCell>
        <mxCell id="NII9MXl5tiNiIM6wbz7J-4" style="edgeStyle=orthogonalEdgeStyle;rounded=0;orthogonalLoop=1;jettySize=auto;html=1;entryX=0;entryY=0.5;entryDx=0;entryDy=0;" edge="1" parent="WIyWlLk6GJQsqaUBKTNV-1" source="NII9MXl5tiNiIM6wbz7J-1" target="NII9MXl5tiNiIM6wbz7J-3">
          <mxGeometry relative="1" as="geometry" />
        </mxCell>
        <mxCell id="NII9MXl5tiNiIM6wbz7J-1" value="encode" style="rounded=0;whiteSpace=wrap;html=1;" vertex="1" parent="WIyWlLk6GJQsqaUBKTNV-1">
          <mxGeometry x="100" y="320" width="120" height="60" as="geometry" />
        </mxCell>
        <mxCell id="NII9MXl5tiNiIM6wbz7J-5" style="edgeStyle=orthogonalEdgeStyle;rounded=0;orthogonalLoop=1;jettySize=auto;html=1;exitX=0.5;exitY=1;exitDx=0;exitDy=0;" edge="1" parent="WIyWlLk6GJQsqaUBKTNV-1" source="NII9MXl5tiNiIM6wbz7J-3" target="NII9MXl5tiNiIM6wbz7J-6">
          <mxGeometry relative="1" as="geometry">
            <mxPoint x="354" y="350" as="targetPoint" />
          </mxGeometry>
        </mxCell>
        <mxCell id="NII9MXl5tiNiIM6wbz7J-3" value="open" style="rounded=0;whiteSpace=wrap;html=1;" vertex="1" parent="WIyWlLk6GJQsqaUBKTNV-1">
          <mxGeometry x="294" y="260" width="120" height="60" as="geometry" />
        </mxCell>
        <mxCell id="NII9MXl5tiNiIM6wbz7J-6" value="encode_frame" style="rounded=0;whiteSpace=wrap;html=1;" vertex="1" parent="WIyWlLk6GJQsqaUBKTNV-1">
          <mxGeometry x="294" y="370" width="120" height="60" as="geometry" />
        </mxCell>
      </root>
    </mxGraphModel>
  </diagram>
</mxfile>
